HIERARCHY
ROOT Hips
{
	OFFSET 0.000000 0.000000 0.000000
	CHANNELS 6 Xposition Yposition Zposition Xrotation Yrotation Zrotation
	JOINT C_ctrl
	{
		OFFSET 0.000000 35.040482 -0.000011
		CHANNELS 3 Xrotation Yrotation Zrotation
		JOINT Bip01
		{
			OFFSET -41.537640 41.789009 -0.000007
			CHANNELS 3 Xrotation Yrotation Zrotation
			JOINT Bip01_Pelvis
			{
				OFFSET -2.462887 0.000000 0.000000
				CHANNELS 3 Xrotation Yrotation Zrotation
				JOINT BN_Tail_01
				{
					OFFSET -11.399368 7.351341 -0.000013
					CHANNELS 3 Xrotation Yrotation Zrotation
					JOINT BN_Tail_02
					{
						OFFSET -11.365196 -0.343025 0.000012
						CHANNELS 3 Xrotation Yrotation Zrotation
						JOINT BN_Tail_03
						{
							OFFSET -15.076256 -0.454979 0.000017
							CHANNELS 3 Xrotation Yrotation Zrotation
							JOINT BN_Tail_04
							{
								OFFSET -17.395691 -0.525002 0.000016
								CHANNELS 3 Xrotation Yrotation Zrotation
								JOINT BN_Tail_05
								{
									OFFSET -16.699837 -0.504005 0.000016
									CHANNELS 3 Xrotation Yrotation Zrotation
									End Site
									{
										OFFSET 0.503998 -16.699829 0.000067
									}
								}
							}
						}
					}
				}
				JOINT Bip01_Spine
				{
					OFFSET 8.297798 5.916809 -0.000020
					CHANNELS 3 Xrotation Yrotation Zrotation
					JOINT Bip01_R_Thigh
					{
						OFFSET -8.297779 -5.916794 10.541781
						CHANNELS 3 Xrotation Yrotation Zrotation
						JOINT Bip01_R_Calf
						{
							OFFSET 5.631542 -22.906792 0.862690
							CHANNELS 3 Xrotation Yrotation Zrotation
							JOINT Bip01_R_HorseLink
							{
								OFFSET -16.984341 -19.231926 -3.555767
								CHANNELS 3 Xrotation Yrotation Zrotation
								JOINT Bip01_R_Foot
								{
									OFFSET 4.290367 -24.783146 0.578056
									CHANNELS 3 Xrotation Yrotation Zrotation
									JOINT Bip01_R_Toe0
									{
										OFFSET 3.561211 -5.815116 0.760802
										CHANNELS 3 Xrotation Yrotation Zrotation
										JOINT Bip01_R_Toe0Nub
										{
											OFFSET 16.135469 0.002017 1.534789
											CHANNELS 3 Xrotation Yrotation Zrotation
											End Site
											{
												OFFSET -0.000002 16.208284 -0.000056
											}
										}
									}
								}
							}
						}
					}
					JOINT Bip01_L_Thigh
					{
						OFFSET -8.297813 -5.916832 -10.541739
						CHANNELS 3 Xrotation Yrotation Zrotation
						JOINT Bip01_L_Calf
						{
							OFFSET 5.631535 -22.906792 -0.862625
							CHANNELS 3 Xrotation Yrotation Zrotation
							JOINT Bip01_L_HorseLink
							{
								OFFSET -16.984318 -19.231949 3.555875
								CHANNELS 3 Xrotation Yrotation Zrotation
								JOINT Bip01_L_Foot
								{
									OFFSET 4.290367 -24.783169 -0.577965
									CHANNELS 3 Xrotation Yrotation Zrotation
									JOINT Bip01_L_Toe0
									{
										OFFSET 3.561245 -5.815111 -0.760799
										CHANNELS 3 Xrotation Yrotation Zrotation
										JOINT Bip01_L_Toe0Nub
										{
											OFFSET 6.574303 -0.000005 -1.538561
											CHANNELS 3 Xrotation Yrotation Zrotation
											End Site
											{
												OFFSET 0.000004 -6.751935 0.000023
											}
										}
									}
								}
							}
						}
					}
					JOINT Bip01_Spine1
					{
						OFFSET 20.556803 -4.626213 -0.000025
						CHANNELS 3 Xrotation Yrotation Zrotation
						JOINT Saddle
						{
							OFFSET 17.608810 18.174690 -0.000143
							CHANNELS 3 Xrotation Yrotation Zrotation
							End Site
							{
								OFFSET -0.000063 -0.000061 -22.448387
							}
						}
						JOINT BN_center
						{
							OFFSET 10.743275 -13.417107 -0.172041
							CHANNELS 3 Xrotation Yrotation Zrotation
							End Site
							{
								OFFSET 22.434088 0.553078 -0.579614
							}
						}
						JOINT Bip01_Spine2
						{
							OFFSET 24.765072 -2.054115 -0.000032
							CHANNELS 3 Xrotation Yrotation Zrotation
							JOINT Handle
							{
								OFFSET 63.735676 16.430748 -16.052464
								CHANNELS 3 Xrotation Yrotation Zrotation
								JOINT IK_Chain01
								{
									OFFSET -4.713058 -6.020439 0.185448
									CHANNELS 3 Xrotation Yrotation Zrotation
									End Site
									{
										OFFSET -0.000023 -0.000023 -7.648071
									}
								}
							}
							JOINT BN_hair04_01
							{
								OFFSET 1.987491 16.256981 -2.049672
								CHANNELS 3 Xrotation Yrotation Zrotation
								JOINT BN_hair04_02
								{
									OFFSET -1.318762 -3.831451 -6.174704
									CHANNELS 3 Xrotation Yrotation Zrotation
									JOINT BN_hair04_03
									{
										OFFSET -0.827490 -5.886627 -5.656666
										CHANNELS 3 Xrotation Yrotation Zrotation
										End Site
										{
											OFFSET -2.658262 5.010620 -5.929780
										}
									}
								}
							}
							JOINT Bip01_Neck
							{
								OFFSET 25.574577 9.433014 -0.000084
								CHANNELS 3 Xrotation Yrotation Zrotation
								JOINT Bip01_R_Clavicle
								{
									OFFSET -16.535652 0.011192 6.705692
									CHANNELS 3 Xrotation Yrotation Zrotation
									JOINT Bip01_R_UpperArm
									{
										OFFSET 20.272621 -12.959984 2.510816
										CHANNELS 3 Xrotation Yrotation Zrotation
										JOINT Bip01_R_Forearm
										{
											OFFSET -13.633509 -15.503704 -0.653585
											CHANNELS 3 Xrotation Yrotation Zrotation
											JOINT Bip01_R_Hand
											{
												OFFSET 2.580030 -27.804676 -1.136415
												CHANNELS 3 Xrotation Yrotation Zrotation
												JOINT Bip01_R_Finger0
												{
													OFFSET -0.281744 -19.659061 -0.398649
													CHANNELS 3 Xrotation Yrotation Zrotation
													JOINT Bip01_Xtra02
													{
														OFFSET 4.152210 -5.712314 0.433813
														CHANNELS 3 Xrotation Yrotation Zrotation
														JOINT Bip01_Xtra02Nub
														{
															OFFSET 15.457960 0.041654 0.507982
															CHANNELS 3 Xrotation Yrotation Zrotation
															End Site
															{
																OFFSET -15.421730 -0.157725 -1.163459
															}
														}
													}
													JOINT Bip01_R_Finger0Nub
													{
														OFFSET 8.362326 -9.718440 -0.143142
														CHANNELS 3 Xrotation Yrotation Zrotation
														End Site
														{
															OFFSET -1.213036 -0.198171 9.872291
														}
													}
												}
											}
										}
									}
								}
								JOINT Bip01_L_Clavicle
								{
									OFFSET -16.535673 0.011162 -6.705583
									CHANNELS 3 Xrotation Yrotation Zrotation
									JOINT Bip01_L_UpperArm
									{
										OFFSET 20.272615 -12.959999 -2.510836
										CHANNELS 3 Xrotation Yrotation Zrotation
										JOINT Bip01_L_Forearm
										{
											OFFSET -13.633495 -15.503681 0.653678
											CHANNELS 3 Xrotation Yrotation Zrotation
											JOINT Bip01_L_Hand
											{
												OFFSET 2.579988 -27.804686 1.136487
												CHANNELS 3 Xrotation Yrotation Zrotation
												JOINT Bip01_L_Finger0
												{
													OFFSET -0.281765 -19.659058 0.398696
													CHANNELS 3 Xrotation Yrotation Zrotation
													JOINT Bip01_Xtra01
													{
														OFFSET 4.083549 -5.738758 -0.666714
														CHANNELS 3 Xrotation Yrotation Zrotation
														JOINT Bip01_Xtra01Nub
														{
															OFFSET 6.758158 -0.395525 -0.023239
															CHANNELS 3 Xrotation Yrotation Zrotation
															End Site
															{
																OFFSET 6.764923 -0.254147 -0.029908
															}
														}
													}
													JOINT Bip01_L_Finger0Nub
													{
														OFFSET -0.012636 -9.629153 0.045740
														CHANNELS 3 Xrotation Yrotation Zrotation
														End Site
														{
															OFFSET 0.988407 0.004791 8.293357
														}
													}
												}
											}
										}
									}
								}
								JOINT BN_hair03_01
								{
									OFFSET -5.894140 16.270622 -2.498433
									CHANNELS 3 Xrotation Yrotation Zrotation
									JOINT BN_hair03_02
									{
										OFFSET -0.189278 -7.800507 -6.219162
										CHANNELS 3 Xrotation Yrotation Zrotation
										JOINT BN_hair03_03
										{
											OFFSET 0.612345 -10.844475 -3.370718
											CHANNELS 3 Xrotation Yrotation Zrotation
											End Site
											{
												OFFSET -2.273296 2.862007 -10.769416
											}
										}
									}
								}
								JOINT Bip01_Neck1
								{
									OFFSET 9.383755 11.908699 -0.000007
									CHANNELS 3 Xrotation Yrotation Zrotation
									JOINT BN_hair02_01
									{
										OFFSET 9.126320 18.808022 -1.420810
										CHANNELS 3 Xrotation Yrotation Zrotation
										JOINT BN_hair02_02
										{
											OFFSET 0.393478 -5.181091 -5.248574
											CHANNELS 3 Xrotation Yrotation Zrotation
											JOINT BN_hair02_03
											{
												OFFSET 0.762280 -8.167076 -0.230047
												CHANNELS 3 Xrotation Yrotation Zrotation
												End Site
												{
													OFFSET -0.025837 -1.251419 -8.109770
												}
											}
										}
									}
									JOINT Bip01_Head
									{
										OFFSET 14.266129 10.475403 -0.000008
										CHANNELS 3 Xrotation Yrotation Zrotation
										JOINT BN_Reins_01
										{
											OFFSET 18.547455 -15.740112 -0.000035
											CHANNELS 3 Xrotation Yrotation Zrotation
											JOINT BN_Reins_02
											{
												OFFSET -5.372810 -5.884506 0.000028
												CHANNELS 3 Xrotation Yrotation Zrotation
												JOINT BN_Reins_03
												{
													OFFSET -6.395866 -15.947449 0.000070
													CHANNELS 3 Xrotation Yrotation Zrotation
													JOINT BN_Halter_R_01
													{
														OFFSET -1.234055 -3.096100 7.096737
														CHANNELS 3 Xrotation Yrotation Zrotation
														End Site
														{
															OFFSET 10.514435 -4.176861 -0.000004
														}
													}
													JOINT BN_Halter_L_01
													{
														OFFSET -1.234062 -3.096146 -7.096726
														CHANNELS 3 Xrotation Yrotation Zrotation
														End Site
														{
															OFFSET -10.514435 4.176865 -0.000000
														}
													}
													JOINT BN_Reins_04
													{
														OFFSET -6.737644 -16.971684 0.000074
														CHANNELS 3 Xrotation Yrotation Zrotation
														JOINT BN_Halter_R_02
														{
															OFFSET -4.688869 -11.781956 7.096771
															CHANNELS 3 Xrotation Yrotation Zrotation
															End Site
															{
																OFFSET 14.669624 -5.827511 -0.000006
															}
														}
														JOINT BN_Halter_L_02
														{
															OFFSET -4.688892 -11.782017 -7.096693
															CHANNELS 3 Xrotation Yrotation Zrotation
															End Site
															{
																OFFSET -14.669624 5.827507 -0.000002
															}
														}
														JOINT BN_Reins_05
														{
															OFFSET -6.822578 -16.971161 0.000074
															CHANNELS 3 Xrotation Yrotation Zrotation
															JOINT BN_Reins_06
															{
																OFFSET -6.140354 -15.095148 0.000066
																CHANNELS 3 Xrotation Yrotation Zrotation
																End Site
																{
																	OFFSET -15.095150 6.140352 -0.000002
																}
															}
														}
													}
												}
											}
										}
										JOINT BN_hair01_01
										{
											OFFSET 8.957344 8.870956 0.112121
											CHANNELS 3 Xrotation Yrotation Zrotation
											JOINT BN_hair01_02
											{
												OFFSET 6.002075 -2.962952 -3.121264
												CHANNELS 3 Xrotation Yrotation Zrotation
												End Site
												{
													OFFSET 5.917702 3.813591 -2.232396
												}
											}
										}
										JOINT BN_Eyebrow_R
										{
											OFFSET 11.795959 -0.430496 4.449781
											CHANNELS 3 Xrotation Yrotation Zrotation
											JOINT Bip01_Xtra06Nub
											{
												OFFSET 2.936661 -0.262573 3.246701
												CHANNELS 3 Xrotation Yrotation Zrotation
												End Site
												{
													OFFSET 2.768745 0.208199 3.394807
												}
											}
										}
										JOINT BN_Eyebrow_L
										{
											OFFSET 11.586395 -0.445618 -4.441728
											CHANNELS 3 Xrotation Yrotation Zrotation
											JOINT Bip01_Xtra05Nub
											{
												OFFSET 3.244698 -0.349442 -4.416700
												CHANNELS 3 Xrotation Yrotation Zrotation
												End Site
												{
													OFFSET 3.053162 0.072495 -4.564033
												}
											}
										}
										JOINT Bip01_R_Ear_01
										{
											OFFSET 7.142960 7.567184 4.311657
											CHANNELS 3 Xrotation Yrotation Zrotation
											JOINT Bip01_Xtra04Nub
											{
												OFFSET 9.464531 9.264214 1.682953
												CHANNELS 3 Xrotation Yrotation Zrotation
												End Site
												{
													OFFSET 8.448181 10.159340 1.910823
												}
											}
										}
										JOINT Bip01__L_Ear_01
										{
											OFFSET 7.214943 7.717056 -4.356771
											CHANNELS 3 Xrotation Yrotation Zrotation
											JOINT Bip01_Xtra03Nub
											{
												OFFSET 9.230225 8.944366 -2.322746
												CHANNELS 3 Xrotation Yrotation Zrotation
												End Site
												{
													OFFSET 8.170288 9.841324 -2.643566
												}
											}
										}
										JOINT Bip01_Jaw
										{
											OFFSET 9.196068 -4.110695 -0.000013
											CHANNELS 3 Xrotation Yrotation Zrotation
											JOINT Bip01_Ponytail1Nub
											{
												OFFSET 10.976463 -21.082108 -0.000053
												CHANNELS 3 Xrotation Yrotation Zrotation
												End Site
												{
													OFFSET 11.247093 -20.938980 0.000113
												}
											}
										}
										JOINT Bip01_HeadNub
										{
											OFFSET 29.954575 -18.249489 -0.000063
											CHANNELS 3 Xrotation Yrotation Zrotation
											End Site
											{
												OFFSET -9.198448 -13.366348 0.000168
											}
										}
									}
								}
							}
						}
					}
				}
			}
		}
	}
}
MOTION
Frames: 4
Frame Time: 0.033333
0.000000 0.000000 0.000000 0.000008 0.000000 -0.000000 -0.000000 0.000000 -0.000000 -0.031058 -1.997901 -0.930455 -0.317169 13.017704 3.056452 -29.159539 28.772647 30.239392 0.677576 -1.462625 23.546742 1.213165 -3.433571 18.780683 1.341211 -7.812649 9.368314 -0.276170 -11.452497 2.210288 0.144205 -6.828950 4.268569 -5.471640 7.091568 -5.205749 0.440026 0.015526 -2.230452 2.158553 -0.088311 -10.959194 5.561762 -9.432386 12.879144 0.000729 -0.000021 -0.003715 0.000101 -0.000137 0.000004 7.441492 -16.904409 15.589224 -1.837079 0.048820 -9.318835 -3.648597 0.396200 -18.665963 -5.667087 12.096308 8.824728 -0.000870 0.000006 -0.003713 0.008674 -0.000376 0.038616 -1.111653 -3.912380 -9.462607 0.917530 -0.020778 6.784383 -0.003569 -0.188671 0.020279 1.446853 2.983183 -39.803870 0.000078 -0.000113 -0.000054 -0.000045 -0.014955 0.015043 0.200579 0.124609 -0.101908 -0.079772 -0.012794 0.024949 3.835907 0.603737 -1.254642 -5.033698 -5.350415 -46.120180 0.636035 8.940059 46.863854 -12.260877 -8.298805 -13.142876 1.180726 -2.114248 62.054331 10.650235 -3.885054 -3.225707 1.880060 4.177914 -4.181050 -0.005016 -0.003933 0.005718 -0.802198 0.160645 -0.479873 -0.804181 0.123480 -0.482651 0.703289 4.932226 60.029126 12.471076 -2.682509 -14.976872 -1.089640 2.059634 59.460881 -8.059079 6.873244 -4.227005 -0.564213 -5.561513 -9.504415 -0.003640 0.003227 -0.002376 0.036735 0.063820 2.451860 -0.000913 0.100574 2.451955 8.458108 -11.539839 15.238632 4.991238 -3.857413 14.775950 1.107689 -6.773456 18.543492 2.435737 -5.063822 -24.869941 20.588871 -3.349227 6.524985 8.996502 9.168620 5.473012 4.284214 17.088198 3.022191 6.276689 -0.887574 41.467236 -0.000029 0.000321 33.480064 -0.441787 -0.458727 -72.796129 -0.000061 -0.000072 -21.993984 0.000019 -0.000009 -0.026802 0.000002 -0.000017 0.012752 -0.000096 -0.000109 -34.639882 0.000037 0.000015 0.015165 0.000027 -0.000010 0.012720 -0.000046 -0.000054 -24.223466 0.000014 -0.000012 -0.000044 4.853852 1.264590 10.364578 8.536251 -15.481923 36.934770 -12.810625 -1.803869 -16.140965 0.024292 -0.030040 11.786702 9.655012 0.978666 -14.662644 0.023307 -0.032269 11.715851 4.732175 -1.542917 -30.128210 0.022969 0.006985 11.753096 -2.237429 -9.067945 -29.343469 0.022939 0.006815 11.747216 0.120427 -0.147023 5.877634 -0.004451 -0.052687 11.750659 0.000072 -0.000034 11.750674 
0.000000 0.000000 0.000000 0.000008 0.000000 -0.000000 -0.000000 0.000000 -0.000000 -0.030870 -1.997905 -0.919561 -0.313123 12.936658 3.037461 -29.078393 28.690510 30.198493 0.214633 -0.443773 23.647216 0.768926 -2.157690 18.806105 1.136090 -6.427803 9.199281 -0.107228 -10.577700 1.863075 0.162852 -6.605029 4.341135 -5.489348 6.966234 -5.442539 0.399575 0.014815 -2.025511 2.170657 -0.089981 -11.021063 5.593770 -9.426406 12.901181 0.000729 -0.000018 -0.003715 0.000101 -0.000137 0.000004 7.321778 -17.062482 15.356161 -1.816295 0.046590 -9.212971 -3.633529 0.392025 -18.586869 -5.618701 12.106850 8.806285 -0.000870 0.000005 -0.003713 0.008674 -0.000376 0.038616 -1.153298 -4.077955 -9.447346 0.917530 -0.020778 6.784383 -0.003587 -0.188672 0.020279 1.443483 3.060252 -39.804888 0.000078 -0.000113 -0.000055 -0.000045 -0.014955 0.015045 0.434709 0.161531 -0.175736 0.164160 0.026207 -0.051411 4.056948 0.634051 -1.325970 -4.946629 -5.364304 -45.653230 0.646753 8.903157 46.397581 -12.414309 -8.368321 -12.950188 1.162192 -2.103532 61.531958 10.796510 -3.946969 -2.996858 1.880060 4.177913 -4.181050 -0.005151 -0.003852 0.005691 -0.802284 0.160644 -0.479879 -0.804181 0.123480 -0.482651 0.632664 4.893956 59.301191 12.296026 -2.678537 -14.591806 -1.087675 2.058388 59.404122 -7.930724 6.743570 -4.497026 -0.531601 -5.564469 -9.405239 -0.003718 0.003233 -0.002363 0.036666 0.063819 2.451860 -0.000913 0.100573 2.451955 8.378482 -11.457481 15.099525 4.798835 -3.693193 14.081612 0.865048 -6.791022 18.553065 2.411324 -5.130896 -25.283291 20.562554 -3.338122 6.479046 9.102623 9.177561 5.448927 4.428361 17.398462 3.356654 6.084636 -1.100227 41.063668 -0.000029 0.000324 33.480061 -0.441788 -0.458727 -72.796129 -0.000063 -0.000072 -21.993993 0.000018 -0.000007 -0.026798 0.000001 -0.000016 0.012754 -0.000097 -0.000107 -34.639878 0.000036 0.000016 0.015166 0.000024 -0.000008 0.012721 -0.000047 -0.000053 -24.223466 0.000015 -0.000013 -0.000046 4.707597 1.085786 10.182614 8.541240 -15.502878 36.957273 -12.810633 -1.803866 -16.140966 0.024249 -0.030050 11.786646 9.655015 0.978670 -14.662647 0.023215 -0.032288 11.715993 5.078005 -2.165090 -31.217636 0.022940 0.006926 11.753082 -2.197009 -9.883782 -30.362312 0.022909 0.006756 11.747236 0.078492 -0.184159 6.044816 -0.004495 -0.052631 11.750657 0.000071 -0.000034 11.750672 
0.000000 0.000000 0.000000 0.000008 0.000000 -0.000000 -0.000000 0.000000 -0.000000 -0.030687 -1.997910 -0.908839 -0.300932 12.714131 3.015252 -28.691046 28.303976 30.000489 -0.242341 0.559156 23.738543 0.303197 -0.785591 18.883876 0.901532 -4.815046 9.108162 0.068011 -9.709057 1.502714 0.178896 -6.245393 4.411070 -5.513551 6.851018 -5.618260 0.369033 0.014182 -1.870771 2.185715 -0.092075 -11.098050 5.620323 -9.421470 12.922895 0.000729 -0.000020 -0.003715 0.000101 -0.000137 0.000004 7.192147 -17.211032 15.089421 -1.796269 0.044476 -9.110983 -3.611652 0.386004 -18.472084 -5.567414 12.117936 8.787771 -0.000870 0.000006 -0.003713 0.008674 -0.000376 0.038616 -1.190421 -4.230449 -9.431742 0.917530 -0.020778 6.784382 -0.003659 -0.188646 0.020293 1.441464 3.136633 -39.779042 0.000078 -0.000112 -0.000057 -0.000045 -0.014955 0.015045 0.671193 0.198508 -0.250458 0.411997 0.065513 -0.129155 4.281526 0.664567 -1.398538 -4.851635 -5.373193 -45.113403 0.668847 8.848479 45.863078 -12.563765 -8.432067 -12.774382 1.143013 -2.092203 60.988446 10.938679 -4.003136 -2.748765 1.880061 4.177914 -4.181050 -0.004857 -0.003788 0.005734 -0.802231 0.160645 -0.479875 -0.804181 0.123480 -0.482651 0.564639 4.842401 58.506581 12.121115 -2.684965 -14.218190 -1.084369 2.056284 59.308506 -7.803395 6.615555 -4.736683 -0.498877 -5.567379 -9.307165 -0.003726 0.003364 -0.002367 0.036840 0.063821 2.451859 -0.000913 0.100574 2.451954 8.296229 -11.371606 14.955053 4.593337 -3.511254 13.318889 0.579364 -6.769106 18.446297 2.382380 -5.161721 -25.626498 20.514762 -3.325254 6.422766 9.232216 9.154322 5.355787 4.596614 17.577579 3.537319 5.839399 -1.332614 40.628943 -0.000029 0.000327 33.480057 -0.441788 -0.458729 -72.796129 -0.000060 -0.000072 -21.993993 0.000020 -0.000008 -0.026803 0.000003 -0.000017 0.012750 -0.000095 -0.000109 -34.639882 0.000038 0.000015 0.015165 0.000026 -0.000009 0.012718 -0.000045 -0.000054 -24.223462 0.000014 -0.000013 -0.000044 4.558476 0.904632 9.997329 8.403384 -15.326058 36.605624 -12.810629 -1.803867 -16.140966 0.024357 -0.030017 11.786781 9.655012 0.978664 -14.662644 0.023262 -0.032271 11.715923 5.420049 -2.815015 -32.315104 0.023019 0.007079 11.753115 -2.165964 -10.722117 -31.390989 0.022987 0.006907 11.747195 0.036889 -0.220038 6.200707 -0.004383 -0.052764 11.750664 0.000071 -0.000031 11.750677 
0.000000 0.000000 0.000000 0.000008 0.000000 -0.000000 -0.000000 0.000000 -0.000000 -0.030534 -1.997897 -0.900549 -0.277296 12.351558 2.985260 -28.022726 27.630607 29.669386 -0.685258 1.512198 23.815628 -0.174496 0.601079 18.982178 0.642681 -3.021112 9.097680 0.294789 -8.191454 1.341815 0.195008 -5.764122 4.481489 -5.543901 6.748298 -5.731346 0.347672 0.013690 -1.762530 2.201937 -0.094357 -11.180999 5.644922 -9.416917 12.945357 0.000729 -0.000020 -0.003715 0.000101 -0.000137 0.000004 7.055568 -17.347067 14.794289 -1.777949 0.042574 -9.017712 -3.583776 0.378399 -18.325918 -5.515830 12.129064 8.769165 -0.000870 0.000005 -0.003713 0.008674 -0.000375 0.038616 -1.222752 -4.367900 -9.415653 0.917530 -0.020778 6.784383 -0.003571 -0.188671 0.020279 1.443216 3.208197 -39.734212 0.000077 -0.000113 -0.000053 -0.000045 -0.014955 0.015045 0.908874 0.235342 -0.325668 0.657171 0.104032 -0.206208 4.507207 0.694928 -1.471588 -4.746789 -5.369709 -44.510246 0.702204 8.780351 45.256721 -12.704834 -8.488879 -12.616991 1.123054 -2.080147 60.419710 11.073170 -4.044401 -2.486069 1.880061 4.177914 -4.181051 -0.004802 -0.003945 0.005749 -0.802199 0.160645 -0.479873 -0.804181 0.123479 -0.482651 0.504206 4.779519 57.650335 11.944919 -2.696398 -13.864489 -1.079842 2.053389 59.177408 -7.679502 6.488507 -4.949528 -0.467756 -5.570096 -9.211966 -0.003812 0.003226 -0.002343 0.036650 0.063820 2.451881 -0.000913 0.100574 2.451954 8.206054 -11.274344 14.793418 4.375729 -3.313638 12.506645 0.286854 -6.740910 18.323092 2.358385 -5.149564 -25.880972 20.429864 -3.306879 6.347210 9.375470 9.106811 5.197082 4.767470 17.747142 3.705792 5.532595 -1.569569 40.161243 -0.000029 0.000322 33.480064 -0.441788 -0.458726 -72.796129 -0.000061 -0.000074 -21.993996 0.000017 -0.000008 -0.026803 0.000000 -0.000016 0.012750 -0.000098 -0.000107 -34.639882 0.000036 0.000015 0.015165 0.000023 -0.000010 0.012721 -0.000048 -0.000054 -24.223469 0.000012 -0.000012 -0.000048 4.395742 0.711416 9.796662 8.269585 -15.152536 36.262280 -12.810629 -1.803865 -16.140966 0.024237 -0.030055 11.786635 9.655025 0.978696 -14.662651 0.023213 -0.032290 11.715999 5.756781 -3.496582 -33.404242 0.022933 0.006911 11.753082 -2.140479 -11.582991 -32.411959 0.022899 0.006745 11.747248 0.002253 -0.252065 6.336186 -0.004506 -0.052620 11.750665 0.000072 -0.000034 11.750680 
